<svg width="500" height="500" viewBox="0 0 500 500" fill="none" xmlns="http://www.w3.org/2000/svg">
<rect width="500" height="500" rx="250" fill="white"/>
<path fill-rule="evenodd" clip-rule="evenodd" d="M250.401 363.093L255.147 373.651L259.694 381.709L262.858 386.71L267.406 393.656L270.965 398.38L277.688 406.16L287.377 414.773L294.693 419.219L300.822 422.275L307.15 424.498L316.245 427.554L324.748 429.221L332.459 430.889L342.148 432H349.859L359.548 430.889L369.632 426.999L377.344 422.831L382.88 418.941L388.417 414.495L392.371 409.494L398.501 400.603L401.863 392.823L404.433 386.154C407.135 385.877 412.935 385.321 414.517 385.321C416.099 385.321 422.031 383.469 424.799 382.542L432.906 379.764L440.222 375.318L444.77 371.428L448.725 367.538L453.075 362.815L456.436 359.203L459.402 355.313L461.577 352.534L466.323 345.032L469.486 336.975L472.452 325.583L475.418 314.469L477 303.633V291.407L476.407 281.682L475.418 271.68L472.452 260.566L468.3 246.951L463.95 237.504L457.82 227.501L453.668 220.277L450.109 214.72L443.188 205.829L436.07 197.771L430.533 193.326L424.008 188.602L419.263 186.657L413.133 184.712L405.817 183.323L397.71 182.767L382.683 184.712L373.587 186.657L361.328 189.991L353.814 192.214L347.684 194.993L338.787 184.712L332.855 177.21L324.155 165.54L316.443 153.037L310.709 142.757L301.416 123.863L293.704 106.914L285.399 89.4092L274.722 69.4038L265.231 49.9542L254.553 27.4483L249.413 13L245.062 27.4483L239.131 42.1744L234.187 53.2885L231.221 60.2347L227.464 67.4589L218.962 83.5743L213.03 95.244L206.307 109.97L199.584 123.863L192.466 137.477L185.15 149.703L177.043 163.873L169.727 174.432L157.666 189.991L151.734 194.993L137.695 189.991L128.402 187.491L117.329 184.99L105.465 183.601L92.0192 184.99C88.1305 185.268 79.0877 186.657 74.0258 189.991C68.9639 193.326 63.7438 197.493 61.7665 199.16L56.0323 206.107L49.3095 216.387L40.0162 231.947L35.0729 240.56L28.5478 259.176L25.1864 278.626L24 292.796V308.356L26.5705 323.36L28.7455 331.696L31.9092 339.753L37.2479 350.312L43.773 359.203L50.6936 366.983L57.021 372.818L64.1392 377.263L71.653 380.042L80.7486 382.542L93.6011 384.487L99.3352 397.269L106.058 406.438L113.967 416.44L119.701 421.719L129.39 426.999L138.881 430.333L147.186 431.722H154.897H164.388L174.275 430.333L182.184 427.832L190.687 425.054L197.409 423.109L206.11 419.497L212.832 415.329L217.578 411.717L222.917 406.16L226.871 401.158L230.43 396.157L233.001 392.545L235.571 388.933L238.735 384.487L241.306 380.32L243.678 376.152L245.458 372.818L247.633 368.65L250.401 363.093ZM277.49 273.902L250.401 207.774L223.114 273.902L250.401 321.693L277.49 273.902ZM289.354 296.408L262.463 342.81L264.44 346.422L266.022 349.756L268.197 353.924L270.57 358.647L272.745 362.259L276.897 368.928L278.479 371.151L280.456 374.207L283.422 378.375L286.586 381.987L288.761 384.21L292.518 388.099L294.693 390.322L296.868 391.989L300.822 394.49L306.359 397.824L309.72 399.769L314.663 401.714L319.409 403.103L324.748 403.937L330.086 404.493L334.239 405.048H338.984L342.741 405.604H347.684L352.825 405.048L355.594 404.215L358.56 403.381L361.13 402.27L364.491 400.603L367.062 398.936L370.423 396.435L372.598 394.49L375.762 390.044L377.937 386.154L375.762 385.321L368.644 381.709L365.48 379.764L360.735 376.985L357.373 375.318L353.814 372.818L348.673 369.483L341.555 363.649L338.787 361.426L334.832 358.369L332.064 355.869L325.341 348.922L323.166 346.7L320.398 343.365L318.223 340.587L315.454 336.975L312.686 333.363L310.313 330.028L304.184 321.137L299.636 313.913L295.681 307.245L289.354 296.408ZM398.501 347.811L392.775 358.369H386.835L379.717 356.702L374.378 355.313L366.667 351.979L361.328 349.2L351.441 341.42L344.125 335.586L336.612 327.806L330.877 321.137L320.002 306.133L313.082 295.853L302.997 278.07L309.325 270.013L313.477 264.456L316.443 260.01L319.211 256.12L321.98 252.508L324.945 249.452L329.691 244.172L332.064 241.394L335.227 238.06L339.973 233.614L344.521 229.168L346.696 231.113L350.848 235.003L355.989 239.727L361.328 244.172L366.271 248.618L372.203 255.009L375.367 258.899L378.53 263.066L381.694 267.512L386.242 274.736L390.394 280.849L396.326 291.407L398.501 298.631L400.478 306.411L401.665 316.136L402.456 328.084L401.665 336.975L398.501 347.811ZM431.522 351.979L423.02 355.313L419.485 356.702L414.517 358.369L418.238 349.2L420.909 341.42L423.02 332.884L424.799 321.693V314.469L423.02 303.633L419.485 293.1L415.923 284.361L411.116 274.736L405.026 265.845L398.501 255.842L390.196 244.172L384.067 236.115L378.53 229.168L373.983 223.889L367.26 216.109L371.61 214.164L380.112 211.386L387.626 210.552L399.49 209.441H406.213L414.913 211.386L419.856 213.887L424.601 218.61L429.347 223.334L433.697 228.613L438.443 234.448L443.188 242.505L447.34 250.841L451.691 259.176L455.843 269.457L457.622 277.792L458.611 286.128V296.408L457.622 306.411L455.843 314.747L453.668 321.693L450.306 331.418L443.979 339.753L438.047 346.422L431.522 351.979ZM323.759 214.72L329.691 208.885L330.68 208.33L326.725 203.328L321.98 198.049L316.443 189.991L311.895 183.601L305.568 174.432L300.625 166.93L295.484 157.205L289.749 146.091L283.027 134.699L277.49 123.863L269.976 109.97L263.649 95.244L258.904 83.5743L254.553 74.1273L250.401 64.1247L246.051 74.1273L241.108 83.5743L235.571 95.244L229.639 106.914L222.917 121.64L217.973 132.476L211.053 146.091L201.76 162.206L195.432 173.876L188.314 185.546L181.591 194.993L170.518 208.885L175.857 215.276L181.591 221.111L189.698 230.836L194.246 236.393L199.98 243.339L204.132 248.618L208.878 254.731L215.996 240.282L221.137 226.946L226.08 215.276L229.639 205.273L234.385 192.77L240.91 179.155L250.401 157.205L256.926 173.876L264.835 192.77L270.174 205.273L275.711 218.61L280.456 229.168L285.993 242.505L292.122 255.009L297.461 248.062L303.986 238.893L308.138 233.614L314.466 225.834L318.223 221.111L323.759 214.72ZM219.357 309.467L211.053 296.131L202.946 309.467L197.212 318.914L190.687 329.195L179.416 343.921L173.484 350.589L165.773 357.536L158.259 364.482L150.943 370.039L144.22 374.207L137.893 377.819L130.972 382.265L123.656 386.154L126.424 390.878L129.786 395.601L133.345 399.214L140.463 403.381L150.943 406.16H160.632L171.111 403.381L180.009 401.158L190.687 397.546L201.76 392.545L209.471 386.988L218.171 376.708L223.905 368.65L230.43 358.369L238.735 342.254L233.001 333.085L225.092 318.914L219.357 309.467ZM193.653 285.294L198.2 278.348L189.698 267.234L178.625 254.175L171.111 244.728L164.586 236.948L155.886 228.057L144.615 240.282L136.113 248.062L128.599 256.954L119.899 267.234L110.804 279.182L107.047 287.239L103.685 295.575L102.349 308.048L101.459 322.527L102.349 334.264L107.047 348.367L110.804 358.647L118.317 357.536L126.227 355.035L135.124 350.589L144.615 345.31L154.897 337.531L165.773 325.861L174.473 314.191L180.998 305.3L184.755 299.465L189.698 292.519L193.653 285.294ZM126.424 224.445L134.531 215.276L125.436 212.775L116.735 210.83L107.047 209.997H94.1942L83.5168 212.775L75.4099 219.166L67.6984 227.223L60.7778 237.226L53.2641 250.007L47.5299 263.066L43.9708 274.458L42.7844 287.239V293.63V303.355L43.9708 313.357L46.5412 322.527L49.9027 329.751L54.4505 337.531L60.5801 343.643L65.3256 348.367L71.0598 353.368L86.6792 359.203L82.9399 346.682L80.7486 337.531L79.5622 326.972L80.3531 315.858L81.935 303.355L84.11 293.63L90.2396 275.57L96.9625 263.066L103.685 253.064L112.385 241.672L119.899 231.669L126.424 224.445Z" fill="black" stroke="black"/>
</svg>
