<svg width="752" height="550" viewBox="0 0 752 550" fill="none" xmlns="http://www.w3.org/2000/svg">
<path d="M354.103 129H259.333L166 212.303V303.667L258.615 391H354.103L446 305.01V213.646L354.103 129Z" stroke="#710941" stroke-width="20"/>
<path d="M470.431 380H442L414 406.708V436L441.785 464H470.431L498 436.431V407.138L470.431 380Z" stroke="#70B76E" stroke-width="10"/>
<path d="M83.4308 216H55L27 242.708V272L54.7846 300H83.4308L111 272.431V243.138L83.4308 216Z" stroke="#181718" stroke-width="10"/>
<path d="M164.636 444H144.667L125 463.077V484L144.515 504H164.636L184 484.308V463.385L164.636 444Z" stroke="#181718" stroke-width="10"/>
<path d="M64.4308 349H36L8 375.708V405L35.7846 433H64.4308L92 405.431V376.138L64.4308 349Z" stroke="#181718" stroke-width="10"/>
<path d="M366.882 444H330.667L295 476.113V511.333L330.392 545H366.882L402 511.851V476.631L366.882 444Z" stroke="#181718" stroke-width="10"/>
<path d="M668.882 424H632.667L597 456.113V491.333L632.392 525H668.882L704 491.851V456.631L668.882 424Z" stroke="#181718" stroke-width="10"/>
<path d="M516.292 293H497L478 310.169V329L496.854 347H516.292L535 329.277V310.446L516.292 293Z" stroke="#181718" stroke-width="10"/>
<path d="M470.431 20H442L414 46.7077V76L441.785 104H470.431L498 76.4308V47.1385L470.431 20Z" stroke="#181718" stroke-width="10"/>
<path d="M680.313 107H615.667L552 166.138V231L615.177 293H680.313L743 231.954V167.092L680.313 107Z" stroke="#181718" stroke-width="17"/>
<path d="M131.61 8H69.3333L8 64.9128V127.333L68.8615 187H131.61L192 128.251V65.8308L131.61 8Z" stroke="#49333F" stroke-width="15"/>
</svg>
