<svg width="65" height="30" viewBox="0 0 63 29" fill="none" xmlns="http://www.w3.org/2000/svg">
<path d="M14.5 1H48.5C55.9558 1 62 7.04416 62 14.5C62 21.9558 55.9558 28 48.5 28H14.5C7.04416 28 1 21.9558 1 14.5C1 7.04416 7.04416 1 14.5 1Z" stroke="url(#paint0_linear_40_4)" stroke-width="2"/>
<path d="M14.5 1H48.5C55.9558 1 62 7.04416 62 14.5C62 21.9558 55.9558 28 48.5 28H14.5C7.04416 28 1 21.9558 1 14.5C1 7.04416 7.04416 1 14.5 1Z" stroke="black" stroke-opacity="0.2" stroke-width="2"/>
<defs>
<linearGradient id="paint0_linear_40_4" x1="31.5" y1="0" x2="32" y2="34.5" gradientUnits="userSpaceOnUse">
<stop stop-color="#ADACAC"/>
<stop offset="1" stop-opacity="0.81"/>
</linearGradient>
</defs>
</svg>
