<svg width="1018" height="798" viewBox="0 0 1018 798" fill="none" xmlns="http://www.w3.org/2000/svg">
<path fill-rule="evenodd" clip-rule="evenodd" d="M508.784 660.973L519.134 679.671L529.053 693.94L535.953 702.797L545.872 715.098L553.635 723.463L568.297 737.24L589.429 752.493L605.385 760.366L618.754 765.778L632.554 769.715L652.392 775.127L670.935 778.08L687.754 781.032L708.886 783H725.704L746.836 781.032L768.83 774.143L785.649 766.763L797.724 759.874L809.799 752.001L818.424 743.144L831.793 727.399L839.124 713.622L844.73 701.813C850.624 701.321 863.274 700.337 866.724 700.337C870.174 700.337 883.112 697.057 889.149 695.416L906.831 690.496L922.787 682.623L932.706 675.735L941.331 668.846L950.818 660.481L958.15 654.085L964.619 647.196L969.362 642.276L979.712 628.991L986.612 614.721L993.081 594.548L999.55 574.866L1003 555.676V534.026L1001.71 516.805L999.55 499.091L993.081 479.41L984.025 455.3L974.537 438.57L961.168 420.857L952.112 408.064L944.35 398.223L929.256 382.477L913.731 368.208L901.656 360.336L887.424 351.971L877.074 348.526L863.705 345.082L847.749 342.622L830.068 341.638L797.292 345.082L777.455 348.526L750.717 354.431L734.33 358.367L720.961 363.288L701.554 345.082L688.617 331.797L669.642 311.131L652.823 288.989L640.316 270.784L620.048 237.325L603.229 207.31L585.116 176.312L561.828 140.885L541.128 106.442L517.841 66.5862L506.628 41L497.141 66.5862L484.203 92.6645L473.422 112.346L466.953 124.647L458.759 137.44L440.215 165.979L427.278 186.645L412.615 212.723L397.952 237.325L382.427 261.435L366.471 283.085L348.79 308.179L332.833 326.877L306.527 354.431L293.589 363.288L262.97 354.431L242.701 350.003L218.551 345.574L192.676 343.114L163.351 345.574C154.87 346.066 135.147 348.526 124.107 354.431C113.067 360.336 101.682 367.716 97.3693 370.668L84.8629 382.969L70.2003 401.175L49.9315 428.729L39.1502 443.983L24.9188 476.95L17.5875 511.393L15 536.487V564.041L20.6063 590.611L25.3501 605.373L32.2501 619.642L43.8939 638.34L58.1253 654.085L73.2191 667.862L87.0192 678.195L102.544 686.068L118.932 690.988L138.77 695.416L166.801 698.861L179.307 721.495L193.97 737.732L211.22 755.446L223.726 764.794L244.858 774.143L265.558 780.048L283.67 782.508H300.489H321.189L342.752 780.048L360.002 775.619L378.546 770.699L393.209 767.255L412.184 760.858L426.846 753.477L437.196 747.081L448.84 737.24L457.465 728.383L465.228 719.526L470.834 713.13L476.44 706.733L483.34 698.861L488.947 691.48L494.122 684.099L498.003 678.195L502.747 670.814L508.784 660.973ZM567.866 503.028L508.784 385.922L449.272 503.028L508.784 587.659L567.866 503.028ZM593.741 542.883L535.091 625.054L539.403 631.451L542.853 637.355L547.597 644.736L552.772 653.101L557.516 659.497L566.572 671.306L570.022 675.243L574.335 680.655L580.804 688.036L587.704 694.432L592.447 698.369L600.641 705.257L605.385 709.194L610.129 712.146L618.754 716.574L630.829 722.479L638.16 725.923L648.941 729.367L659.292 731.828L670.935 733.304L682.579 734.288L691.636 735.272H701.986L710.179 736.256H720.961L732.173 735.272L738.211 733.796L744.68 732.32L750.286 730.351L757.617 727.399L763.223 724.447L770.555 720.019L775.299 716.574L782.199 708.702L786.942 701.813L782.199 700.337L766.674 693.94L759.773 690.496L749.423 685.576L742.092 682.623L734.33 678.195L723.117 672.29L707.592 661.957L701.554 658.021L692.929 652.609L686.892 648.18L672.229 635.879L667.485 631.943L661.448 626.038L656.704 621.118L650.667 614.721L644.629 608.325L639.454 602.42L626.085 586.675L616.166 573.882L607.541 562.073L593.741 542.883ZM831.793 633.911L819.303 652.609H806.349L790.824 649.656L779.18 647.196L762.361 641.292L750.717 636.371L729.154 622.594L713.198 612.261L696.811 598.484L684.304 586.675L660.585 560.105L645.491 541.899L623.498 510.408L637.298 496.139L646.354 486.298L652.823 478.426L658.86 471.537L664.898 465.141L671.367 459.728L681.717 450.379L686.892 445.459L693.792 439.554L704.142 431.682L714.061 423.809L718.804 427.253L727.861 434.142L739.073 442.507L750.717 450.379L761.499 458.252L774.436 469.569L781.336 476.458L788.236 483.838L795.136 491.711L805.055 504.504L814.111 515.329L827.049 534.026L831.793 546.82L836.105 560.597L838.693 577.818L840.418 598.976L838.693 614.721L831.793 633.911ZM903.812 641.292L885.268 647.196L877.558 649.656L866.724 652.609L874.84 636.371L880.665 622.594L885.268 607.477L889.149 587.659V574.866L885.268 555.676L877.558 537.024L869.791 521.549L859.305 504.504L846.024 488.759L831.793 471.045L813.68 450.379L800.311 436.11L788.236 423.809L778.317 414.46L763.655 400.683L773.142 397.239L791.686 392.318L808.074 390.842L833.949 388.874H848.612L867.587 392.318L878.368 396.747L888.718 405.111L899.068 413.476L908.556 422.825L918.906 433.158L929.256 447.427L938.312 462.188L947.8 476.95L956.856 495.155L960.737 509.916L962.894 524.678V542.883L960.737 560.597L956.856 575.358L952.112 587.659L944.781 604.881L930.981 619.642L918.043 631.451L903.812 641.292ZM668.779 398.223L681.717 387.89L683.873 386.906L675.248 378.049L664.898 368.7L652.823 354.431L642.904 343.114L629.104 326.877L618.323 313.591L607.11 296.37L594.604 276.688L579.941 256.515L567.866 237.325L551.478 212.723L537.678 186.645L527.328 165.979L517.841 149.249L508.784 131.536L499.297 149.249L488.515 165.979L476.44 186.645L463.503 207.31L448.84 233.389L438.059 252.578L422.965 276.688L402.696 305.227L388.896 325.893L373.371 346.558L358.708 363.288L334.558 387.89L346.202 399.207L358.708 409.54L376.39 426.761L386.309 436.602L398.815 448.903L407.871 458.252L418.221 469.077L433.746 443.491L444.959 419.873L455.74 399.207L463.503 381.493L473.853 359.351L488.084 335.241L508.784 296.37L523.016 325.893L540.266 359.351L551.91 381.493L563.985 405.111L574.335 423.809L586.41 447.427L599.779 469.569L611.423 457.268L625.654 441.03L634.71 431.682L648.51 417.905L656.704 409.54L668.779 398.223ZM441.078 566.009L422.965 542.391L405.284 566.009L392.777 582.739L378.546 600.944L353.965 627.022L341.027 638.832L324.208 651.133L307.821 663.434L291.864 673.275L277.202 680.655L263.402 687.052L248.308 694.924L232.351 701.813L238.389 710.178L245.72 718.542L253.483 724.939L269.008 732.32L291.864 737.24H312.996L335.852 732.32L355.258 728.383L378.546 721.987L402.696 713.13L419.515 703.289L438.49 685.084L450.996 670.814L465.228 652.609L483.34 624.07L470.834 607.833L453.584 582.739L441.078 566.009ZM385.015 523.202L394.934 510.9L376.39 491.219L352.24 468.093L335.852 451.363L321.621 437.586L302.646 421.841L278.064 443.491L259.52 457.268L243.133 473.013L224.158 491.219L204.32 512.377L196.126 526.646L188.795 541.407L185.88 563.495L183.939 589.135L185.88 609.921L196.126 634.895L204.32 653.101L220.708 651.133L237.958 646.704L257.364 638.832L278.064 629.483L300.489 615.706L324.208 595.04L343.183 574.374L357.415 558.629L365.608 548.296L376.39 535.995L385.015 523.202ZM238.389 415.444L256.07 399.207L236.233 394.778L217.258 391.334L196.126 389.858H168.095L144.807 394.778L127.126 406.095L110.307 420.365L95.213 438.078L78.8254 460.712L66.3191 483.838L58.5565 504.012L55.969 526.646V537.963V555.184L58.5565 572.898L64.1628 589.135L71.4941 601.928L81.4129 615.706L94.7818 626.53L105.132 634.895L117.638 643.752L151.704 654.085L143.549 631.912L138.77 615.706L136.182 597.008L137.907 577.326L141.357 555.184L146.101 537.963L159.47 505.98L174.132 483.838L188.795 466.125L207.77 445.951L224.158 428.237L238.389 415.444Z" fill="white" stroke="white" stroke-width="30"/>
</svg>
