<svg width="1515" height="1398" viewBox="0 0 1515 1398" fill="none" xmlns="http://www.w3.org/2000/svg">
<g clip-path="url(#clip0_29_11)">
<rect x="117" y="82" width="1280" height="1280" rx="640" fill="#780082"/>
<path d="M414.212 480C388.101 453.458 507.912 382.72 527.212 363.5C497.695 374.483 311.335 388.397 297.712 322.5C284.089 256.603 470.57 240.709 464.326 192.201C458.082 143.693 311.062 234.302 320.712 179.388C328.432 135.456 461.867 62.2365 464.326 63.1518L500.087 48.5079L550.606 29.2878L577.853 21.0506L597.152 16.4744L623.263 10.0677L663.565 4.57621L721.464 0H776.524L856.56 10.0677L873.021 12.8134L890.618 16.4744L912.188 22.8811L936.029 30.203L960.437 38.4402L996.198 52.1688L1010.39 58.5756L1034.23 70.4737L1048.99 77.7957L1066.58 86.9481L1084.18 97.931L1111.43 114.405L1170.46 156.507L1198.84 179.388L1208.49 187.625L1215.87 194.032L1224.95 202.269L1236.87 213.252L1247.66 223.319L1260.71 236.133L1268.66 244.37L1276.04 251.692L1284.55 260.844L1297.61 274.573L1307.26 285.556L1319.18 299.284L1332.24 314.844L1350 346L1357.21 384.5C1340 443.5 1316.68 336.738 1297.61 358.704C1273.77 386.161 1421.35 490.57 1306.12 455.791C1190.9 421.011 1247.09 455.791 1226.09 524.434C1205.09 593.077 1133.56 505.214 1069.99 414.605C1006.42 323.996 1060.91 470.435 1024.58 505.214C988.251 539.993 989.386 455.791 975.763 455.791C962.14 455.791 932.055 531.756 894.024 524.434C855.992 517.112 833.287 465.858 798.662 455.791C764.036 445.723 744.659 568.356 736.712 583C728.765 597.644 430.712 673 538.712 583C601.797 530.429 440.323 506.542 414.212 480Z" fill="url(#paint0_linear_29_11)"/>
<path d="M914.413 828.878C914.413 949.787 1095.53 812.749 1101.41 835.878C1119.98 908.878 1051.48 974.378 1109.13 974.378C1195.91 974.378 1124.48 1050.11 1144.33 1086.95C1164.18 1123.79 1293.56 1026.01 1302 1073C1308.76 1110.59 1237.27 1180.89 1206.53 1218.31L1180.93 1241.32L1144.33 1272.66L1123.95 1287.86L1109.13 1297.62L1089.15 1310.99L1056.98 1328.12L1009.77 1350.07L963.566 1367.46L893.369 1384.69L878.728 1387.7L862.859 1390.32L842.828 1392.01L820.616 1393.68L797.652 1394.8L763.507 1395.12L749.668 1394.47L726.078 1392.48L711.487 1391.29L693.963 1389.52L675.888 1386.29L648.061 1381.72L585.839 1366.68L555.13 1357.33L544.55 1353.79L536.428 1350.99L526.325 1347.27L513.014 1342.25L500.93 1337.6L486.115 1331.47L476.965 1327.39L468.567 1323.86L458.664 1319.23L443.573 1312.37L432.167 1306.63L418.028 1299.41L402.385 1291.08L372.052 1274.07L296.132 1215.07C210.413 1145.38 348.025 1228.48 357.413 1204.88C366.801 1181.28 259.692 1122.32 366.413 1135.38C468.567 1147.88 473.1 1103.24 413.652 1086.95C292.913 1053.88 540.063 955.107 542.997 1050.15C544.264 1091.17 561.945 1070.23 581.955 1030.93C601.964 991.62 635.419 1024.02 646.851 1019.72C658.284 1015.42 619.542 968.635 653.663 962.479C687.784 956.324 665.323 798.887 697.413 796.004C729.502 793.122 836.655 696.106 838.913 681.878C841.17 667.649 899.535 651.115 964.413 681.878C1029.29 712.641 914.413 737.378 914.413 828.878Z" fill="url(#paint1_linear_29_11)"/>
<path d="M329.81 830.062C260.048 807.784 320.526 964.388 306.577 964.393C262.552 964.408 231.791 902.657 225.874 944.469C216.966 1007.41 180.604 941.646 157.308 949.255C134.013 956.864 179.479 1062.03 151.5 1059.5C129.117 1057.47 93.565 999.351 75.1349 970.164L64.4831 947.358L50.1582 915.036L43.4811 897.453L39.3714 884.909L33.7051 867.952L27.1253 841.469L19.3048 803.186L14.0114 766.471L11.2763 712.386L11.0463 701.214L11.158 689.221L12.2403 674.382L13.5552 657.965L15.2664 641.104L18.5913 616.284L20.3831 606.366L23.9523 589.624L26.1403 579.262L28.9572 566.879L32.6758 554.365L38.1718 535.026L53.236 492.672L61.7789 472.121L64.909 465.102L67.3555 459.726L70.5401 453.085L74.8045 444.356L78.7271 436.449L83.784 426.834L87.0777 420.95L89.9752 415.509L93.6652 409.181L99.173 399.501L103.656 392.286L109.272 383.362L115.682 373.552L128.61 354.687L170.446 310.498C219.455 261.173 157.382 345.662 170.036 356.82C182.691 367.978 227.701 301.161 209.213 376.153C191.515 447.936 216.808 459.45 232.305 419.336C263.781 337.865 295.402 535.308 240.265 519.925C216.462 513.284 226.731 529.965 247.356 551.72C267.981 573.474 245.851 591.766 247.16 600.85C248.47 609.935 279.439 590.458 279.488 616.338C279.537 642.218 372.681 654.938 371.05 678.742C369.42 702.546 414.398 798.134 422.375 802.393C430.353 806.652 433.903 852.027 409.494 893.411C385.085 934.795 382.604 846.922 329.81 830.062Z" fill="url(#paint2_linear_29_11)"/>
<path d="M1249.82 561.579C1260.54 541.312 1276.27 542.776 1289.27 553.436C1279.31 535.084 1275.78 470.665 1309.42 454.303C1343.06 437.941 1330.77 480.509 1356.05 470.974C1381.33 461.439 1364.23 450.84 1395.14 451.132C1419.86 451.366 1425.73 454.891 1425.57 456.624L1438.36 478.71L1455.63 510.073L1463.79 527.226L1468.9 539.515L1475.93 556.118L1484.4 582.233L1494.79 620.118L1502.33 656.631L1507.86 710.825L1508.63 722.047L1509.07 734.123L1508.57 749.139L1507.89 765.763L1506.79 782.865L1504.29 808.105L1502.78 818.228L1499.63 835.361L1497.71 845.962L1495.18 858.649L1491.67 871.539L1486.53 891.439L1471.92 935.268L1463.48 956.633L1460.36 963.948L1457.92 969.554L1454.73 976.493L1450.44 985.619L1446.49 993.89L1441.38 1003.97L1438.03 1010.16L1435.09 1015.87L1431.33 1022.53L1425.72 1032.71L1421.12 1040.33L1415.36 1049.77L1408.76 1060.15L1395.41 1080.18L1396.71 1074.02C1399.7 1063.59 1402.07 1040.19 1387.62 1029.98C1369.57 1017.22 1326.28 1138.79 1329.25 1058.51C1332.21 978.232 1321.17 1019.36 1281.31 1013.07C1241.45 1006.78 1279 949.577 1319.12 897.343C1359.23 845.108 1287.79 897.528 1264.08 877.305C1240.37 857.082 1285.9 848.471 1284.03 839.437C1282.17 830.403 1237.12 818.901 1235.86 792.866C1234.6 766.832 1259.11 746.076 1259.79 721.995C1260.48 697.914 1190.84 721.706 1181.86 718.064C1172.89 714.423 1177.16 620.53 1202.09 576.924C1227.02 533.318 1239.09 581.845 1249.82 561.579Z" fill="url(#paint3_linear_29_11)"/>
</g>
<defs>
<linearGradient id="paint0_linear_29_11" x1="994.712" y1="9.75811e-05" x2="622.548" y2="710.51" gradientUnits="userSpaceOnUse">
<stop stop-color="#FDFDFD"/>
<stop offset="0.661929" stop-color="#8E009A"/>
</linearGradient>
<linearGradient id="paint1_linear_29_11" x1="718" y1="1451" x2="707" y2="921" gradientUnits="userSpaceOnUse">
<stop stop-color="#FEF5FF"/>
<stop offset="1" stop-color="#8E009A"/>
</linearGradient>
<linearGradient id="paint2_linear_29_11" x1="3.03371" y1="690.329" x2="456" y2="795.5" gradientUnits="userSpaceOnUse">
<stop stop-color="#FEF5FF"/>
<stop offset="0.763439" stop-color="#8E009A"/>
</linearGradient>
<linearGradient id="paint3_linear_29_11" x1="1517.96" y1="732.353" x2="1196.85" y2="798.628" gradientUnits="userSpaceOnUse">
<stop stop-color="#FEF5FF"/>
<stop offset="1" stop-color="#8E009A"/>
</linearGradient>
<clipPath id="clip0_29_11">
<rect width="1515" height="1398" fill="none"/>
</clipPath>
</defs>
</svg>
