<svg width="1514" height="456" viewBox="0 0 1514 456" fill="none" xmlns="http://www.w3.org/2000/svg">
<g clip-path="url(#clip0_27_5)">
<path d="M-110 891C-110 413.274 280.774 26 758.5 26C1236.23 26 1627 413.274 1627 891H-110Z" fill="#58095F"/>
<path d="M590.45 300.519C564.339 281.28 571.15 261.378 590.45 247.447C560.933 255.408 466.706 242.804 453.083 195.039C439.46 147.274 497.358 174.474 491.114 139.313C484.87 104.153 464.436 123.392 474.085 83.5881C481.805 51.745 488.655 45.111 491.114 45.7744L526.875 35.1601L577.394 21.2287L604.641 15.2581L623.94 11.9412L650.051 7.29737L690.353 3.31699L748.252 0H803.312L883.348 7.29737L899.81 9.28757L917.406 11.9412L938.976 16.5849L962.817 21.8921L987.225 27.8627L1022.99 37.8137L1037.18 42.4574L1061.02 51.0816L1075.78 56.3888L1093.37 63.0228L1110.97 70.9835L1138.22 82.9247L1197.25 113.441L1225.63 130.026L1235.28 135.997L1242.66 140.64L1251.74 146.611L1263.66 154.572L1274.45 161.869L1287.5 171.157L1295.45 177.127L1302.83 182.434L1311.34 189.068L1324.4 199.019L1334.05 206.98L1345.97 216.931L1359.02 228.209L1384 250.764L1375.49 247.447C1361.29 240.813 1343.47 244.078 1324.4 260C1300.56 279.902 1448.14 355.581 1332.91 330.372C1217.68 305.163 1273.88 330.372 1252.88 380.127C1231.87 429.881 1160.35 366.195 1096.78 300.519C1033.2 234.843 1087.7 340.986 1051.37 366.195C1015.04 391.404 1016.17 330.372 1002.55 330.372C988.928 330.372 958.843 385.434 920.812 380.127C882.781 374.819 860.075 337.669 825.45 330.372C790.824 323.074 804.447 419.267 796.5 429.881C788.554 440.496 654.025 409.98 598.397 366.195C542.769 322.411 616.561 319.757 590.45 300.519Z" fill="url(#paint0_linear_27_5)"/>
<path d="M153.266 426.226C136.093 432.604 132.817 423.693 136.749 410.794C126.582 426.642 82.2935 466.18 61.5922 458.537C40.8909 450.894 74.159 432.256 60.5416 424.895C46.9243 417.534 44.1576 432.498 35.9038 416.499C29.3007 403.7 30.1703 398.63 31.4305 397.696L43.4467 378.213L60.753 350.999L70.5669 336.77L77.8023 326.957L87.5428 313.635L103.569 293.999L127.34 266.488L150.927 241.243L187.485 206.669L195.156 199.7L203.52 192.404L214.206 183.864L226.071 174.477L238.385 165.022L256.802 151.519L264.326 146.363L277.223 137.94L285.197 132.717L294.8 126.578L304.816 120.825L320.204 111.805L354.991 93.6115L372.311 85.4212L378.303 82.733L382.91 80.7L388.658 78.272L396.243 75.1215L403.134 72.2985L411.617 69.0133L416.88 67.1058L421.693 65.2657L427.405 63.2909L436.095 60.1986L442.706 58.0891L450.909 55.5172L460.012 52.8107L477.731 47.9182L473.051 50.8574C464.908 55.4348 447.816 67.9332 444.601 81.3076C440.581 98.0255 537.83 48.988 480.622 94.4899C423.413 139.992 455.332 121.557 461.819 145.654C468.307 169.752 417.847 184.025 370.173 194.076C322.498 204.128 378.876 210.008 371.159 233.995C363.442 257.981 344.934 239.714 339.097 245.96C333.261 252.206 337.51 282.011 319.566 297.905C301.622 313.799 280.333 313.406 263.229 327.16C246.125 340.914 281.898 362.639 281.797 369.369C281.696 376.099 214.568 428.907 177.111 441.68C139.653 454.454 170.44 419.849 153.266 426.226Z" fill="url(#paint1_linear_27_5)"/>
<path d="M1338.96 404.761C1342.71 392.141 1352.15 390.221 1361.16 393.662C1352.97 385.609 1342.73 351.948 1360.47 337.474C1378.21 322.999 1376.36 347.751 1390.05 338.342C1403.73 328.933 1392.31 326.228 1410.55 321.082C1425.15 316.964 1429.05 317.832 1429.18 318.78L1439.5 328.335L1453.65 342.055L1460.63 349.778L1465.19 355.438L1471.43 363.064L1479.73 375.502L1490.65 393.871L1499.71 412L1509.83 439.878L1511.71 445.714L1513.49 452.063L1515.1 460.136L1516.81 469.096L1518.33 478.381L1520.05 492.236L1520.44 497.88L1520.76 507.533L1520.97 513.502L1521.09 520.683L1520.65 528.142L1520.14 539.61L1517.09 565.429L1514.83 578.242L1513.92 582.668L1513.19 586.068L1512.19 590.307L1510.82 595.897L1509.54 600.974L1507.8 607.215L1506.61 611.08L1505.61 614.619L1504.23 618.81L1502.22 625.19L1500.48 630.032L1498.28 636.038L1495.71 642.695L1490.38 655.635L1490.37 652.138C1490.81 646.078 1489.24 633.221 1479.44 630.271C1467.19 626.584 1457.09 698.674 1448.67 655.463C1440.25 612.251 1438.96 636.026 1414.68 639.516C1390.41 643.006 1405.28 606.138 1422.29 571.471C1439.31 536.804 1403.87 576.944 1387.35 570.255C1370.82 563.565 1396.54 551.175 1394.3 546.69C1392.05 542.204 1364.07 543.814 1360.03 530.182C1355.99 516.55 1367.79 501.305 1365.15 488.379C1362.5 475.452 1324.5 500.054 1318.75 499.657C1313 499.261 1303.63 448.585 1312.79 421.113C1321.95 393.64 1335.21 417.382 1338.96 404.761Z" fill="url(#paint2_linear_27_5)"/>
</g>
<defs>
<linearGradient id="paint0_linear_27_5" x1="819.5" y1="-32" x2="771" y2="413.5" gradientUnits="userSpaceOnUse">
<stop stop-color="#FDFDFD"/>
<stop offset="1" stop-color="#81038B"/>
</linearGradient>
<linearGradient id="paint1_linear_27_5" x1="199.844" y1="188.889" x2="334.291" y2="314.507" gradientUnits="userSpaceOnUse">
<stop stop-color="#FEF5FF"/>
<stop offset="1" stop-color="#911E9B"/>
</linearGradient>
<linearGradient id="paint2_linear_27_5" x1="1518.51" y1="449.597" x2="1337.78" y2="539.94" gradientUnits="userSpaceOnUse">
<stop stop-color="#FEF5FF"/>
<stop offset="1" stop-color="#8E009A"/>
</linearGradient>
<clipPath id="clip0_27_5">
<rect width="1514" height="456" fill="white"/>
</clipPath>
</defs>
</svg>
